<?xml version="1.0" encoding="utf-8"?>
<!-- Generator: Adobe Illustrator 18.1.1, SVG Export Plug-In . SVG Version: 6.00 Build 0)  -->
<svg version="1.1" id="main" xmlns="http://www.w3.org/2000/svg" xmlns:xlink="http://www.w3.org/1999/xlink" x="0px" y="0px"
	 width="500px" height="500px" viewBox="0 0 500 500" style="enable-background:new 0 0 500 500;" xml:space="preserve">
<style type="text/css">
	.st0{fill:#512D13;}
	.st1{fill:#F9D5CD;}
</style>
<rect class="st0" width="500" height="500"/>
<g>
	<path class="st1" d="M197.8,191.7c23.73,0,45.53,10.54,65.4,31.6c19.86,21.07,29.8,45.54,29.8,73.4c0,27.87-9.87,52.27-29.6,73.2
		c-19.74,20.94-40.94,31.4-63.6,31.4c-22.67,0-38.8-6.4-48.4-19.2c-2.14,13.07-13.6,19.6-34.4,19.6c-16.8,0-27.07-3.6-30.8-10.8
		c-1.87-4-3-7.53-3.4-10.6c-0.4-3.06-0.6-7.66-0.6-13.8V127.7c0-6.13,0.2-10.73,0.6-13.8c0.4-3.06,1.53-6.46,3.4-10.2
		c3.73-7.2,14.13-10.8,31.2-10.8c16.8,0,26.93,3.6,30.4,10.8c2.13,4,3.4,7.54,3.8,10.6c0.4,3.07,0.6,7.67,0.6,13.8v83.2
		C162.86,198.24,178.06,191.7,197.8,191.7z M162.8,320.9c6.53,7.2,14.73,10.8,24.6,10.8c9.86,0,18.26-3.6,25.2-10.8
		c6.93-7.2,10.4-15.2,10.4-24c0-8.8-3.2-16.86-9.6-24.2c-6.4-7.33-14.94-11-25.6-11c-10.67,0-19.14,3.74-25.4,11.2
		c-6.27,7.47-9.4,15.54-9.4,24.2C153,305.77,156.26,313.7,162.8,320.9z"/>
	<path class="st1" d="M319,127.3c0-6.13,0.2-10.73,0.6-13.8c0.4-3.06,1.53-6.6,3.4-10.6c3.73-7.2,14.13-10.8,31.2-10.8
		c16.26,0,26.4,3.6,30.4,10.8c2.13,4,3.4,7.6,3.8,10.8c0.4,3.2,0.6,7.87,0.6,14v185.2c0,9.6,0.8,15.67,2.4,18.2
		c1.6,2.54,5.13,3.8,10.6,3.8c5.46,0,9.13,0.2,11,0.6c1.86,0.4,4.13,1.54,6.8,3.4c5.33,3.47,8,12.94,8,28.4
		c0,16.8-2.67,27.07-8,30.8c-6.94,4.8-23.47,5.6-49.6,2.4c-20.54-2.66-33.87-9.46-40-20.4c-7.47-13.06-11.2-33.86-11.2-62.4V127.3z"
		/>
</g>
<g>
</g>
<g>
</g>
<g>
</g>
<g>
</g>
<g>
</g>
<g>
</g>
<g>
</g>
<g>
</g>
<g>
</g>
<g>
</g>
<g>
</g>
<g>
</g>
<g>
</g>
<g>
</g>
<g>
</g>
</svg>
