<?xml version="1.0" encoding="utf-8"?>
<!-- Generator: Adobe Illustrator 18.1.1, SVG Export Plug-In . SVG Version: 6.00 Build 0)  -->
<svg version="1.1" id="main" xmlns="http://www.w3.org/2000/svg" xmlns:xlink="http://www.w3.org/1999/xlink" x="0px" y="0px"
	 width="500px" height="500px" viewBox="0 0 500 500" style="enable-background:new 0 0 500 500;" xml:space="preserve">
<style type="text/css">
	.st0{fill:#512D13;}
	.st1{fill:#F9D5CD;}
</style>
<rect class="st0" width="500" height="500"/>
<g>
	<g>
		<path class="st1" d="M132.15,167.76c1.23-8.2-5.33-14.35-16.81-10.66l-1.23-1.23c14.35-6.97,43.05-15.99,62.73-15.99
			c23.37,0,31.57,8.61,27.06,36.49l-27.88,176.3c-7.79,49.2-34.44,105.37-86.1,105.37c-35.26,0-55.35-18.45-55.35-44.28
			c0-30.34,23.78-43.05,46.33-43.05c21.32,0,41.82,13.94,38.95,41.82c-15.17-0.82-23.78,6.56-23.78,18.86
			c0,9.02,5.33,15.58,15.17,15.58c18.45,0,24.6-16.81,24.6-35.26c0-34.85-36.08-43.05-30.34-79.54L132.15,167.76z M150.19,122.66
			c8.61-13.53,12.71-44.69,0.41-60.27c9.84-18.04,28.7-29.52,45.51-29.52c15.58,0,34.03,9.43,34.03,32.39
			c0,31.98-36.9,60.27-79.13,58.63L150.19,122.66z"/>
	</g>
</g>
<g>
	<g>
		<path class="st1" d="M201.24,359c0-25,19-48,46.5-48c19.5,0,39,12,36,36.5c-14.5,5-23.5,18.5-23.5,33c0,16,10.5,26.5,46.5,26.5
			c23,0,76.5-5,76.5-38c0-49.5-156-47-156-131c0-69,77-96,139.5-96c41.5,0,94.5,9.5,94.5,47.5c0,22.5-17,43-41.5,43
			c-17,0-33-11.5-30.5-33.5c11-4,20.5-14.5,20.5-27c0-17-19.5-25.5-49-25.5c-22.5,0-56.5,9.5-56.5,38.5c0,50,153.5,40,153.5,124
			c0,72.5-86.5,102.5-154,102.5C258.24,411.5,201.24,402,201.24,359z"/>
	</g>
</g>
</svg>
