<?xml version="1.0" encoding="utf-8"?>
<!-- Generator: Adobe Illustrator 18.1.1, SVG Export Plug-In . SVG Version: 6.00 Build 0)  -->
<svg version="1.1" id="main" xmlns="http://www.w3.org/2000/svg" xmlns:xlink="http://www.w3.org/1999/xlink" x="0px" y="0px"
	 width="500px" height="500px" viewBox="0 0 500 500" style="enable-background:new 0 0 500 500;" xml:space="preserve">
<style type="text/css">
	.st0{fill:#512D13;}
	.st1{fill:#F9D5CD;}
</style>
<rect class="st0" width="500" height="500"/>
<g>
	<g>
		<path class="st1" d="M157.96,280.88c23.22-73.1,52.89-93.31,87.29-93.31c40.85,0,63.64,25.8,63.64,72.24
			c0,69.66-43.86,162.97-133.73,162.97c-64.5,0-111.8-40.85-102.77-99.33l33.97-214.14c1.29-8.6-5.59-15.05-17.63-11.18l-1.29-1.29
			c15.05-7.31,45.15-16.77,65.79-16.77c24.51,0,33.97,9.03,29.24,38.27l-41.28,252.4c-1.29,8.17-8.17,45.15,10.75,45.15
			c37.41,0,79.55-116.96,79.98-183.61c0-18.06-2.58-30.96-11.61-30.96c-17.2,0-42.57,30.1-58.91,80.84L157.96,280.88z"/>
		<path class="st1" d="M358.77,109.31c1.29-8.6-5.59-15.05-17.63-11.18l-1.29-1.29c15.05-7.31,45.15-16.77,65.79-16.77
			c24.51,0,33.11,9.03,28.38,38.27l-33.54,209.84c-5.16,30.1-15.48,85.14-0.86,92.45l-1.29,1.29c-30.96,4.73-90.73,3.01-79.12-66.22
			L358.77,109.31z"/>
	</g>
</g>
<g>
</g>
<g>
</g>
<g>
</g>
<g>
</g>
<g>
</g>
<g>
</g>
<g>
</g>
<g>
</g>
<g>
</g>
<g>
</g>
<g>
</g>
<g>
</g>
<g>
</g>
<g>
</g>
<g>
</g>
</svg>
